<?xml version="1.0" standalone="no"?>
<!DOCTYPE svg PUBLIC "-//W3C//DTD SVG 20010904//EN"
 "http://www.w3.org/TR/2001/REC-SVG-20010904/DTD/svg10.dtd">
<svg version="1.0" xmlns="http://www.w3.org/2000/svg"
 width="452.000000pt" height="427.000000pt" viewBox="0 0 452.000000 427.000000"
 preserveAspectRatio="xMidYMid meet">
<metadata>
Created by potrace 1.15, written by Peter Selinger 2001-2017
</metadata>
<g transform="translate(0.000000,427.000000) scale(0.100000,-0.100000)"
fill="#000000" stroke="none">
<path d="M1515 3799 c-100 -8 -281 -41 -365 -66 -154 -45 -381 -184 -347 -211
47 -37 210 -97 357 -131 270 -61 524 -86 890 -86 335 0 427 10 637 65 110 28
270 97 293 125 14 16 11 20 -55 71 -189 147 -642 246 -1111 243 -115 -1 -249
-5 -299 -10z m612 -70 c8 -8 7 -18 -3 -37 -11 -22 -11 -29 1 -42 18 -20 19
-52 3 -68 -19 -19 -99 -14 -135 8 -37 22 -40 39 -16 81 11 19 14 32 8 37 -6 4
-11 13 -12 20 -4 16 138 17 154 1z"/>
<path d="M3284 3442 c5 -8 2 -10 -8 -6 -8 3 -24 -1 -36 -9 -20 -14 -20 -15 -3
-22 42 -17 73 -23 78 -15 5 9 76 -5 115 -24 64 -29 136 -92 83 -72 -9 4 -38 9
-63 12 -35 4 -42 3 -30 -6 20 -15 -82 -6 -160 15 -30 8 -67 15 -82 15 -34 0
-46 18 -15 22 22 3 21 4 -11 20 -34 16 -35 16 -59 -8 -29 -29 -28 -68 2 -70
38 -3 40 -4 25 -14 -13 -8 -12 -10 3 -10 9 0 17 5 17 11 0 6 8 8 19 4 10 -3
65 -7 122 -9 57 -2 115 -8 129 -14 14 -6 19 -11 10 -12 -8 -1 -4 -5 9 -11 14
-5 31 -7 38 -4 9 3 11 0 7 -7 -5 -8 -1 -9 12 -4 10 4 15 4 12 0 -8 -7 58 -55
79 -58 16 -3 83 -66 83 -79 0 -5 -8 -3 -17 4 -17 13 -17 12 -2 -6 49 -60 64
-107 64 -210 0 -162 -37 -220 -200 -311 -52 -29 -143 -40 -164 -19 -7 7 13 10
60 10 58 0 73 4 85 19 8 11 24 21 36 23 34 5 34 13 0 13 -50 0 -132 36 -202
89 -93 70 -155 161 -170 250 l-7 46 -8 -32 c-6 -28 -10 -31 -31 -23 -20 8 -24
6 -24 -10 0 -12 -7 -20 -16 -20 -14 0 -16 8 -11 53 3 28 11 69 17 89 16 57 83
134 141 164 28 14 49 28 46 31 -3 3 -34 -10 -69 -29 -60 -31 -65 -37 -105
-116 -35 -68 -43 -93 -43 -138 0 -30 -4 -54 -10 -54 -5 0 -10 12 -10 26 0 24
-2 25 -17 13 -15 -13 -16 -10 -10 31 6 41 6 43 -8 26 -8 -11 -15 -28 -15 -39
0 -10 -4 -27 -10 -37 -7 -14 -6 -23 6 -34 9 -9 17 -37 19 -64 6 -97 62 -206
131 -255 65 -46 182 -106 222 -113 38 -7 131 10 175 33 26 13 36 20 90 66 16
14 22 15 29 5 6 -10 8 -10 9 2 1 8 1 18 0 22 0 3 15 32 34 64 19 32 35 50 35
40 0 -23 22 -16 36 12 6 12 17 30 26 39 8 10 27 48 42 84 15 37 38 76 52 88
13 11 24 28 24 37 0 12 6 15 21 11 21 -6 21 -3 16 46 -7 60 -66 184 -105 219
-20 18 -24 20 -19 5 5 -12 3 -16 -5 -11 -8 5 -9 2 -5 -9 6 -15 1 -15 -33 3
-22 11 -40 25 -40 30 0 14 17 12 44 -5 22 -14 24 -14 30 2 5 13 -2 26 -26 46
-85 73 -176 106 -353 132 -55 7 -109 17 -119 21 -13 5 -17 4 -12 -4z m466
-245 c38 -30 71 -87 81 -142 11 -59 5 -125 -11 -125 -4 0 -17 26 -28 58 -10
31 -38 86 -60 121 -33 51 -39 67 -31 82 11 22 27 24 49 6z m-652 -374 c17 -27
48 -64 69 -83 21 -19 32 -28 26 -20 -18 20 -16 30 6 30 21 0 61 -48 61 -74 0
-19 -50 -23 -51 -3 0 10 -2 10 -6 0 -2 -7 -10 -13 -17 -13 -7 0 -18 6 -24 13
-7 6 -18 12 -25 12 -19 0 -66 88 -72 138 -4 26 -4 47 -2 47 3 0 19 -21 35 -47z"/>
<path d="M3818 2793 c-41 -100 -60 -134 -101 -179 -26 -29 -47 -56 -47 -60 0
-4 -13 -22 -30 -39 -30 -31 -34 -45 -32 -102 2 -28 8 -35 55 -57 28 -14 75
-44 102 -66 60 -49 145 -91 197 -98 21 -2 35 -9 32 -14 -4 -6 3 -5 15 1 11 7
21 15 22 19 6 75 6 119 0 177 -5 44 -9 56 -10 33 -1 -46 -14 -48 -67 -12 -38
25 -38 25 -18 3 21 -23 21 -25 3 -43 -18 -18 -19 -18 -46 0 -15 10 -31 18 -35
16 -4 -1 -4 6 -1 15 5 11 3 14 -6 8 -10 -5 -11 -2 -6 14 4 13 2 21 -5 21 -6 0
-8 -4 -5 -10 7 -11 4 -12 -35 -14 -21 -2 -25 3 -25 24 0 18 -5 24 -17 22 -10
-2 -18 1 -18 6 0 16 38 53 44 43 3 -5 0 -11 -6 -14 -7 -2 -9 -8 -5 -13 4 -5
12 -2 17 6 7 11 11 11 24 1 11 -9 16 -10 16 -2 0 6 -4 11 -9 11 -5 0 -23 11
-39 24 l-29 25 -34 -21 c-33 -20 -33 -21 -11 -29 28 -10 29 -37 1 -47 -20 -8
-19 -9 8 -21 18 -9 23 -15 15 -18 -19 -7 -55 13 -71 39 -11 18 -11 20 2 15 21
-8 28 2 17 23 -7 13 -3 23 15 40 14 13 28 38 31 57 3 18 14 44 25 56 42 54
102 187 84 187 -3 0 -11 -12 -17 -27z"/>
<path d="M4080 2719 c-25 -12 -39 -23 -32 -26 7 -3 19 0 26 6 12 10 12 5 4
-29 -9 -33 -15 -40 -34 -40 -18 0 -24 6 -24 23 -1 20 -2 20 -11 4 -7 -12 -7
-48 -1 -110 l9 -92 2 68 c1 63 2 67 24 67 25 0 56 -29 50 -47 -3 -7 -11 -9
-19 -6 -11 4 -14 -5 -15 -38 -1 -24 0 -48 1 -54 5 -25 8 -32 18 -58 7 -16 12
-34 12 -40 1 -16 25 -47 36 -47 5 0 18 -24 29 -52 20 -57 33 -294 29 -548 l-1
-125 13 70 c12 68 30 315 33 465 5 211 13 307 27 338 9 18 13 40 10 48 -3 7 0
19 7 26 15 14 7 123 -12 153 -37 58 -112 76 -181 44z"/>
<path d="M3000 2550 c-36 -4 -79 -15 -96 -25 -61 -36 -104 -136 -104 -243 0
-32 -6 -63 -16 -78 -40 -60 8 -212 91 -289 56 -52 155 -105 228 -121 4 -1 8
-2 10 -4 21 -17 133 -13 164 6 103 65 184 176 182 249 -1 27 -2 26 -10 -10
-18 -77 -89 -145 -188 -180 -49 -17 -129 -20 -151 -5 -11 7 -3 9 25 4 31 -4
51 0 91 20 29 14 60 26 70 26 29 0 10 9 -52 26 -68 18 -129 50 -199 107 -27
23 -42 32 -32 21 9 -11 17 -25 17 -31 0 -33 -65 -54 -112 -35 -32 13 -77 86
-85 139 -5 35 -4 37 11 23 8 -8 31 -47 51 -85 19 -39 35 -62 35 -52 0 9 5 17
11 17 6 0 8 7 5 16 -4 12 -2 15 9 10 9 -3 15 0 15 9 0 8 4 15 10 15 5 0 -2 24
-15 53 -14 28 -28 67 -31 85 -6 32 -17 41 -29 22 -3 -5 -12 -7 -19 -4 -7 3
-19 -2 -26 -11 -53 -64 -66 64 -18 192 16 44 29 60 65 83 83 53 174 49 300
-11 74 -35 179 -132 211 -194 18 -37 36 -110 45 -190 3 -24 4 -22 5 10 2 60
-25 165 -55 210 -47 72 -122 133 -229 185 -56 27 -105 49 -110 49 -5 -1 -38
-5 -74 -9z"/>
<path d="M3947 2085 c78 -53 88 -87 87 -305 -1 -261 -51 -550 -118 -680 -22
-42 -26 -44 -70 -47 -26 -2 -46 1 -46 7 0 5 -11 10 -25 10 -14 0 -25 -4 -25
-10 0 -5 -7 -6 -17 -3 -11 4 -14 3 -9 -5 5 -8 1 -10 -11 -5 -15 6 -14 8 8 17
14 6 25 17 23 24 -1 7 0 8 3 2 2 -5 22 -10 43 -10 21 0 41 -6 44 -12 5 -10 7
-10 12 0 3 6 13 12 22 13 27 1 -18 17 -49 18 -46 2 -203 51 -225 72 -11 10
-25 19 -31 19 -24 0 -41 38 -46 110 l-6 75 41 43 c30 32 41 51 40 74 -1 30
-109 232 -121 225 -36 -20 -84 -36 -91 -32 -16 10 -12 55 4 55 8 0 16 4 18 9
2 5 23 31 48 58 88 93 109 132 30 54 -41 -40 -87 -79 -102 -87 -28 -15 -32
-22 -28 -61 1 -13 -3 -23 -9 -23 -6 0 -11 8 -11 17 0 23 -9 12 -13 -17 -6 -37
25 -109 82 -193 74 -110 93 -159 90 -234 -1 -35 1 -66 4 -70 4 -3 6 -18 6 -32
-1 -25 -2 -24 -8 4 l-7 30 -12 -35 c-7 -19 -9 -36 -4 -38 5 -1 7 -15 4 -31 -4
-26 2 -31 63 -66 52 -28 89 -40 162 -52 123 -20 153 -13 196 40 40 51 53 80
79 177 53 202 82 451 76 645 -5 159 -22 206 -91 254 -25 17 -49 31 -54 31 -4
0 15 -16 44 -35z"/>
<path d="M2890 1794 c-30 -10 -95 -39 -100 -44 -3 -3 -18 -16 -34 -28 -16 -12
-26 -22 -22 -22 3 0 -3 -9 -14 -20 -16 -16 -20 -32 -18 -87 1 -46 3 -55 5 -28
7 71 21 59 15 -14 -2 -39 1 -99 7 -133 14 -70 56 -173 83 -202 10 -11 18 -24
18 -30 0 -5 -7 -1 -15 10 -14 18 -14 18 -15 -8 0 -15 -4 -30 -10 -33 -5 -3
-10 3 -10 14 0 12 -4 21 -10 21 -5 0 -10 -8 -10 -17 0 -10 -16 7 -35 36 -20
30 -34 56 -31 58 2 3 -2 19 -9 36 -7 18 -17 66 -20 107 -4 41 -12 82 -17 90
-12 20 -1 -119 18 -235 9 -49 24 -155 34 -235 18 -142 88 -494 110 -557 19
-53 10 -84 -36 -115 -127 -85 -331 -162 -530 -199 -99 -18 -155 -22 -329 -22
-212 -1 -295 7 -485 44 -335 67 -627 250 -732 460 -21 41 -38 67 -38 58 0 -24
21 -79 30 -79 5 0 11 -14 15 -30 4 -17 11 -30 17 -30 6 0 7 -7 4 -16 -4 -10
-2 -13 6 -8 8 5 9 2 5 -10 -10 -25 10 -57 30 -49 12 5 15 2 10 -10 -6 -16 36
-67 55 -67 4 0 17 -10 28 -22 32 -35 249 -145 305 -154 11 -2 29 -8 40 -14 35
-17 255 -60 385 -75 249 -30 581 -14 775 36 128 32 249 72 257 83 3 5 24 10
46 10 22 1 44 4 48 9 12 11 331 -3 412 -19 40 -8 78 -11 84 -8 6 4 53 11 105
15 72 6 105 14 143 35 29 16 47 31 44 39 -3 7 4 21 15 32 23 22 41 123 22 123
-7 0 -9 5 -6 10 5 8 12 7 23 -2 14 -11 14 -10 -1 12 -9 13 -17 33 -17 43 0 10
-4 16 -8 13 -5 -3 -9 0 -9 7 0 26 -36 106 -45 101 -6 -4 -8 1 -4 12 6 20 1 32
-26 52 -14 11 -16 11 -13 -5 2 -10 4 -22 4 -26 1 -5 6 -5 13 -1 7 5 8 3 4 -5
-9 -14 12 -71 25 -71 5 0 9 -5 9 -11 0 -5 -3 -8 -7 -6 -5 3 -7 -23 -6 -56 0
-34 -1 -48 -3 -32 -24 174 -121 334 -268 442 -32 24 -54 43 -49 43 5 0 15 -6
22 -12 11 -11 13 -10 8 4 -4 11 0 18 11 21 9 3 -5 5 -33 6 -36 0 -46 -2 -35
-9 8 -5 11 -10 5 -10 -5 1 -19 7 -29 15 -11 8 -28 15 -37 15 -10 0 -30 5 -46
12 -15 7 -32 12 -38 13 -13 1 -75 34 -75 40 0 3 24 -5 53 -16 73 -30 102 -37
163 -45 47 -5 60 -2 115 27 71 38 112 88 134 162 23 79 16 176 -17 212 -5 5
-2 -10 7 -34 53 -150 -29 -284 -187 -306 -47 -7 -143 9 -153 25 -3 5 12 4 32
-2 68 -19 214 6 198 33 -4 5 4 13 17 18 18 7 11 9 -33 9 -100 1 -225 67 -283
150 -37 54 -96 191 -96 224 0 59 -49 35 -59 -29 -6 -36 -33 -64 -48 -49 -24
24 12 203 49 240 33 32 78 46 155 47 l78 1 -60 14 c-66 15 -64 14 -85 8z m261
-810 c198 -94 367 -413 285 -539 -19 -29 -93 -81 -102 -72 -4 3 9 14 28 23 19
9 39 24 45 33 9 15 6 16 -26 13 -24 -2 -32 0 -23 6 10 6 -1 11 -35 16 -52 7
-170 68 -215 111 -16 14 -28 21 -28 16 0 -5 5 -13 10 -16 6 -3 10 -11 10 -17
0 -6 -3 -9 -6 -5 -3 3 -17 -5 -31 -19 -30 -30 -38 -30 -57 -2 -9 12 -19 19
-22 15 -4 -4 -2 -13 4 -20 33 -39 -38 -15 -74 25 -20 22 -54 97 -54 118 0 6 7
10 15 10 8 0 15 7 15 15 0 48 76 -41 109 -129 10 -24 13 -26 26 -12 8 8 15 19
15 25 0 5 7 14 16 19 15 8 13 15 -15 56 -18 25 -48 80 -68 121 -26 55 -40 75
-54 75 -11 0 -22 -8 -26 -17 -3 -10 -15 -26 -25 -36 -15 -15 -22 -16 -33 -7
-20 17 -19 24 9 80 14 27 22 58 19 69 -4 15 6 27 39 51 40 30 48 32 113 28 52
-3 87 -11 136 -34z"/>
<path d="M3470 885 c0 -14 7 -16 35 -13 37 4 42 -7 12 -26 -13 -8 -20 -7 -27
4 -5 8 -12 11 -16 7 -4 -4 -16 0 -26 10 -38 34 -19 -37 45 -168 69 -142 90
-159 95 -76 2 26 6 47 10 47 14 0 44 62 39 81 -3 10 -1 17 4 13 14 -8 11 22
-6 63 -8 20 -14 37 -12 39 7 8 153 -29 173 -44 33 -24 31 -74 -7 -183 -35
-102 -33 -138 11 -169 15 -11 41 -20 57 -20 24 1 25 2 10 11 -9 5 -22 7 -27 4
-5 -3 -22 5 -37 19 -15 15 -22 26 -15 26 6 0 12 7 12 16 0 8 5 12 11 9 6 -4 8
-13 5 -21 -3 -8 0 -11 10 -7 16 6 17 12 4 33 -5 8 -10 11 -11 5 0 -5 -4 -1 -9
10 -7 15 -9 16 -9 4 -1 -9 -8 -23 -18 -30 -14 -13 -16 -11 -10 11 3 14 17 58
31 99 35 99 35 163 1 190 -30 23 -138 49 -233 57 -37 2 -75 7 -84 10 -12 4
-18 0 -18 -11z"/>
</g>
</svg>
