<?xml version="1.0" standalone="no"?>
<!DOCTYPE svg PUBLIC "-//W3C//DTD SVG 20010904//EN"
 "http://www.w3.org/TR/2001/REC-SVG-20010904/DTD/svg10.dtd">
<svg version="1.0" xmlns="http://www.w3.org/2000/svg"
 width="500.000000pt" height="560.000000pt" viewBox="0 0 500.000000 560.000000"
 preserveAspectRatio="xMidYMid meet">
<metadata>
Created by potrace 1.15, written by Peter Selinger 2001-2017
</metadata>
<g transform="translate(0.000000,560.000000) scale(0.100000,-0.100000)"
fill="#000000" stroke="none">
<path d="M1741 3949 c-112 -11 -334 -54 -396 -78 -150 -56 -217 -92 -282 -152
-46 -42 -46 -43 32 -81 144 -72 416 -133 760 -170 188 -20 713 -17 845 5 162
27 321 72 413 116 96 46 116 64 95 83 -138 133 -368 212 -759 263 -162 21
-235 25 -410 24 -118 -1 -252 -5 -298 -10z m619 -74 c9 -10 9 -15 1 -15 -14 0
-14 -35 1 -76 17 -48 0 -64 -68 -64 -30 0 -54 4 -54 9 0 5 -9 11 -20 14 -30 8
-35 34 -14 74 15 28 16 37 6 40 -10 4 -10 8 -1 19 16 20 132 19 149 -1z"/>
<path d="M3478 3582 c-26 -17 -26 -18 -8 -30 11 -7 42 -12 70 -12 60 0 128
-22 180 -58 39 -27 54 -49 25 -38 -29 11 -146 28 -152 22 -4 -3 5 -6 18 -6 13
0 31 -5 39 -11 20 -14 -86 -4 -160 16 -30 8 -67 15 -82 15 -15 0 -30 5 -33 10
-4 6 6 10 22 10 l28 0 -35 18 c-40 21 -65 14 -82 -23 -8 -19 -7 -27 6 -40 9
-9 20 -14 26 -10 6 3 7 -1 4 -9 -4 -11 0 -16 11 -16 9 0 13 5 9 11 -4 8 3 9
24 5 16 -4 74 -9 128 -10 55 -2 110 -8 124 -14 14 -6 19 -11 10 -12 -8 -1 -4
-5 9 -11 14 -5 31 -7 38 -4 9 3 11 0 7 -7 -5 -8 -2 -9 10 -5 9 4 15 3 12 -2
-4 -6 42 -35 51 -32 2 0 20 -16 40 -37 26 -26 30 -28 13 -7 -19 23 -15 20 18
-10 39 -36 61 -73 27 -45 -8 7 1 -13 20 -45 56 -93 61 -222 13 -326 -21 -46
-38 -65 -89 -101 -35 -25 -82 -53 -104 -64 -44 -21 -128 -25 -145 -8 -9 9 -1
11 32 7 55 -6 113 9 112 29 -1 10 8 15 28 16 41 1 49 12 10 12 -50 0 -132 36
-202 89 -93 70 -155 161 -170 250 -7 45 -7 45 -15 15 -6 -26 -11 -30 -31 -26
-17 3 -24 0 -24 -12 0 -9 -7 -16 -15 -16 -19 0 -20 47 -1 115 24 92 71 152
149 192 27 13 47 27 44 29 -3 3 -31 -8 -64 -23 -48 -24 -64 -39 -94 -89 -46
-76 -59 -115 -59 -175 0 -27 -4 -49 -10 -49 -5 0 -10 14 -10 32 0 30 -1 31
-16 12 -14 -18 -15 -16 -10 26 4 41 3 43 -10 26 -8 -11 -14 -29 -14 -40 0 -12
-5 -28 -10 -36 -6 -10 -4 -20 5 -30 8 -9 16 -38 19 -66 10 -106 63 -207 134
-258 66 -49 185 -107 229 -113 78 -10 183 32 262 105 11 11 15 11 22 0 5 -7 9
-8 10 -3 1 6 2 17 3 25 2 21 59 120 70 120 5 0 3 -7 -4 -15 -10 -12 -10 -15 2
-15 18 0 66 73 103 158 15 34 33 62 39 62 7 0 19 16 26 36 11 27 19 34 33 30
18 -4 19 -1 14 47 -7 58 -66 183 -103 218 -24 23 -34 14 -11 -10 8 -9 8 -12 0
-7 -6 3 -14 0 -16 -6 -4 -10 -6 -10 -6 -1 -1 7 -7 10 -13 8 -16 -6 -65 31 -55
41 4 5 21 0 36 -9 27 -16 29 -16 36 1 4 12 -3 25 -27 45 -85 73 -174 106 -353
132 -55 8 -109 17 -120 20 -11 3 -32 -3 -47 -13z m504 -234 c36 -30 69 -89 79
-143 11 -59 5 -125 -11 -125 -4 0 -17 26 -28 58 -10 31 -38 86 -60 121 -33 51
-39 67 -31 82 11 22 29 24 51 7z m-654 -375 c17 -27 48 -64 69 -83 21 -19 32
-28 26 -20 -18 19 -16 28 5 32 10 2 25 -8 40 -29 26 -37 27 -46 8 -62 -11 -9
-18 -8 -30 4 -9 9 -16 12 -16 6 0 -15 -23 -14 -38 2 -7 6 -18 12 -25 12 -19 0
-66 88 -72 138 -4 26 -4 47 -2 47 3 0 19 -21 35 -47z"/>
<path d="M4059 2975 c-18 -69 -66 -161 -112 -210 -26 -27 -47 -53 -47 -57 0
-4 -13 -22 -29 -41 -29 -32 -36 -55 -33 -109 2 -22 11 -31 46 -46 24 -11 68
-40 99 -65 86 -70 232 -129 267 -107 14 9 20 110 11 190 -6 45 -9 54 -10 28
-1 -46 -14 -48 -67 -12 -38 25 -38 25 -17 3 18 -20 19 -26 8 -36 -22 -20 -52
-15 -73 12 -11 13 -22 21 -26 18 -3 -3 -6 -2 -6 4 0 6 -14 10 -34 8 -30 -3
-33 -1 -32 23 1 20 -3 26 -16 24 -10 -2 -18 1 -18 6 0 16 38 53 44 43 3 -5 0
-11 -6 -14 -7 -2 -9 -8 -5 -13 4 -5 12 -2 18 6 8 13 10 13 18 0 6 -8 14 -11
18 -6 4 5 2 11 -5 13 -7 3 -25 15 -41 28 l-28 24 -34 -21 c-33 -20 -33 -21
-11 -29 28 -10 29 -37 1 -47 -20 -8 -19 -9 8 -21 18 -9 23 -15 15 -18 -19 -7
-55 13 -71 39 -11 18 -11 20 2 15 21 -8 28 2 17 23 -7 13 -3 23 15 40 13 12
27 37 30 54 4 17 17 47 29 66 60 92 102 190 82 190 -3 0 -7 -2 -7 -5z"/>
<path d="M4335 2883 c-11 -2 -31 -13 -45 -24 -24 -20 -24 -21 -2 -16 23 5 26
-2 16 -40 -4 -16 -14 -23 -30 -23 -18 0 -24 6 -24 23 -1 20 -2 20 -11 4 -7
-12 -7 -48 -1 -110 l9 -92 2 68 c1 64 2 67 26 67 14 0 29 -8 35 -20 11 -21 5
-44 -10 -35 -4 3 -10 -14 -12 -38 -5 -50 28 -156 61 -190 56 -61 67 -155 66
-587 -1 -87 2 -129 6 -105 19 104 31 241 36 398 9 318 14 411 23 422 9 11 16
48 27 133 6 52 -17 120 -50 143 -24 18 -89 29 -122 22z"/>
<path d="M3228 2700 c-41 -4 -75 -13 -86 -23 -10 -9 -23 -17 -28 -17 -32 -1
-84 -142 -84 -227 0 -33 -6 -63 -16 -79 -24 -35 -14 -125 21 -193 50 -100 152
-174 296 -215 116 -34 167 -21 262 66 45 42 97 141 96 182 -1 29 -2 28 -10 -9
-13 -54 -44 -97 -98 -133 -88 -60 -190 -78 -256 -47 -16 8 -21 13 -10 10 82
-18 93 -17 137 9 25 14 53 26 63 26 31 0 4 15 -50 29 -59 15 -144 62 -200 110
-22 20 -32 26 -22 14 39 -45 -33 -96 -93 -67 -36 18 -79 88 -87 141 -5 35 -4
37 11 23 8 -8 31 -47 51 -85 19 -39 35 -62 35 -52 0 9 5 17 10 17 6 0 10 6 10
13 0 7 8 19 19 26 18 13 18 15 -5 65 -13 28 -27 66 -30 84 -6 28 -34 47 -34
22 0 -5 -6 -7 -13 -4 -8 3 -20 -2 -27 -11 -19 -23 -39 -18 -46 11 -9 35 10
142 34 197 44 99 182 131 320 75 78 -32 82 -26 5 8 -32 14 -66 30 -75 35 -10
5 -21 8 -25 8 -5 -1 -38 -5 -75 -9z"/>
<path d="M4177 2235 c78 -53 88 -87 87 -305 -1 -262 -51 -551 -118 -680 -20
-37 -28 -45 -54 -46 -17 -1 -38 -4 -47 -7 -8 -4 -14 -1 -12 6 2 14 -35 15 -73
3 -20 -7 -23 -6 -13 5 20 20 96 27 109 10 10 -13 14 -13 28 2 15 15 14 16 -21
22 -21 4 -78 17 -126 31 -93 25 -112 24 -104 -7 3 -11 1 -17 -3 -14 -5 3 -11
1 -15 -5 -3 -5 -11 -10 -16 -10 -6 0 1 15 15 33 25 32 25 35 9 49 -10 9 -28
19 -40 22 -25 8 -29 21 -37 116 l-5 65 44 48 c37 40 44 53 39 75 -8 34 -114
224 -123 219 -36 -20 -84 -36 -91 -32 -16 10 -12 55 4 55 8 0 16 4 18 9 2 5
23 31 48 58 25 26 59 66 75 88 23 31 15 26 -34 -24 -36 -35 -82 -75 -103 -88
-39 -26 -42 -31 -38 -70 1 -13 -3 -23 -9 -23 -6 0 -11 8 -12 18 0 14 -2 14 -8
-3 -5 -11 -7 -24 -6 -30 10 -52 32 -101 70 -155 69 -100 105 -182 106 -244 1
-30 -1 -58 -5 -64 -3 -6 -2 -13 4 -17 5 -3 9 -18 9 -33 -1 -27 -1 -27 -8 3
l-7 30 -12 -34 c-7 -19 -9 -37 -5 -40 5 -3 8 -19 8 -35 0 -25 8 -33 63 -63 70
-39 225 -70 287 -59 99 19 171 220 211 589 22 207 16 405 -14 464 -19 37 -95
103 -119 103 -4 0 15 -16 44 -35z"/>
<path d="M3115 1943 c-30 -7 -88 -36 -103 -50 -7 -7 -21 -18 -30 -25 -40 -29
-52 -61 -50 -128 1 -46 3 -53 5 -25 7 71 21 59 15 -14 -6 -85 10 -175 46 -256
14 -33 29 -62 32 -65 45 -44 90 -100 75 -92 -12 6 -31 24 -44 41 -29 38 -40
39 -33 6 2 -15 0 -25 -7 -25 -6 0 -11 7 -11 15 0 11 -7 14 -24 9 -19 -4 -25
-1 -30 20 -3 14 -11 26 -16 26 -15 0 -41 112 -55 239 -3 30 -8 57 -10 60 -13
13 -1 -121 29 -319 9 -58 23 -157 31 -220 15 -121 30 -194 106 -532 16 -69 13
-72 -79 -126 -333 -190 -767 -247 -1243 -161 -215 38 -386 103 -544 206 -98
64 -202 174 -244 257 -18 37 -36 65 -38 62 -7 -6 17 -76 25 -76 11 0 46 -82
47 -109 0 -13 11 -31 23 -39 12 -8 22 -21 22 -28 0 -8 5 -14 10 -14 6 0 20 -9
33 -20 12 -12 29 -27 37 -34 8 -8 31 -21 50 -30 19 -9 50 -27 68 -40 36 -27
183 -86 212 -86 10 0 20 -4 22 -9 5 -15 292 -69 431 -82 154 -14 478 -6 592
15 163 29 288 64 383 107 25 11 52 17 66 13 14 -3 27 -1 31 6 9 15 309 4 414
-16 40 -7 79 -11 84 -7 6 4 50 10 98 13 94 7 203 48 193 74 -3 7 2 18 10 25 8
7 21 38 27 69 7 31 18 61 23 65 6 5 0 5 -14 1 -21 -6 -23 -5 -13 8 12 13 8 51
-7 73 -3 6 -14 31 -24 58 -10 26 -21 45 -26 42 -4 -3 -6 4 -3 14 3 12 -3 26
-15 37 -11 9 -18 22 -16 28 2 6 -5 22 -16 36 -11 14 -20 20 -20 13 0 -6 5 -15
11 -19 8 -4 7 -9 -2 -16 -11 -8 -10 -9 3 -4 14 4 17 0 14 -17 -3 -23 32 -117
44 -117 4 0 5 -11 2 -25 -7 -38 -18 -30 -32 23 -6 26 -28 78 -48 117 -20 38
-36 77 -35 85 1 8 0 10 -2 4 -3 -5 -36 20 -73 56 -37 37 -80 76 -97 88 -18 14
-22 19 -10 15 18 -6 19 -5 5 12 -14 17 -13 18 3 12 9 -3 17 -2 17 3 0 6 -21
10 -46 10 -32 0 -43 -3 -38 -12 4 -6 -3 -4 -17 5 -13 9 -31 17 -41 17 -9 0
-29 5 -45 12 -15 7 -32 12 -38 13 -16 2 -77 36 -72 41 2 2 30 -7 61 -21 32
-14 90 -30 130 -36 68 -10 76 -9 117 11 111 57 159 129 165 247 l3 68 -8 -60
c-10 -71 -17 -90 -49 -132 -27 -37 -88 -68 -149 -78 -43 -7 -149 10 -158 25
-3 5 12 4 32 -2 66 -18 214 6 198 32 -3 5 5 12 17 17 17 5 4 9 -48 13 -141 12
-248 91 -314 234 -22 45 -42 101 -46 124 -7 43 -34 81 -34 48 0 -9 -7 -19 -16
-23 -10 -3 -14 -15 -12 -33 3 -30 -16 -60 -38 -60 -21 0 -27 62 -11 123 9 32
11 54 5 51 -6 -4 -8 2 -6 12 2 11 10 18 16 17 7 -2 12 1 12 5 0 15 34 49 67
66 20 10 58 16 105 17 50 0 65 3 48 8 -41 13 -94 19 -115 14z m266 -809 c198
-94 367 -414 285 -539 -19 -29 -93 -81 -102 -72 -4 3 9 14 28 23 19 9 40 24
46 34 10 17 8 18 -26 13 -24 -3 -33 -2 -24 5 10 6 0 11 -32 15 -52 7 -109 34
-178 83 -36 25 -48 30 -48 18 0 -8 -4 -13 -8 -10 -5 3 -19 -6 -31 -20 -22 -25
-41 -28 -48 -7 -2 6 3 18 12 26 8 9 15 20 15 26 0 18 20 23 37 9 9 -7 -3 16
-26 51 -24 35 -60 98 -80 141 -33 71 -38 77 -59 69 -12 -5 -22 -15 -22 -22 0
-8 -9 -22 -20 -32 -19 -17 -22 -17 -36 -3 -14 14 -14 21 -3 54 8 22 20 45 27
52 6 8 9 24 6 37 -5 19 2 29 38 55 40 30 48 32 113 28 52 -3 87 -11 136 -34z
m-191 -342 c43 -73 47 -88 28 -95 -10 -3 -10 -7 -1 -19 34 -40 -36 -17 -73 24
-20 22 -54 97 -54 118 0 6 7 10 15 10 8 0 15 7 15 15 0 35 32 10 70 -53z"/>
<path d="M3706 1043 c-15 -16 -3 -25 29 -21 37 4 42 -7 12 -26 -13 -8 -20 -8
-26 3 -5 7 -13 11 -19 7 -6 -3 -13 -2 -17 4 -3 5 -10 10 -16 10 -21 0 -5 -51
57 -176 71 -143 94 -161 94 -77 0 33 6 50 26 71 17 19 24 35 21 54 -2 15 1 29
7 31 7 2 4 19 -7 47 -9 24 -16 45 -14 46 7 7 140 -27 167 -43 40 -23 40 -66
-1 -184 -34 -98 -33 -138 4 -164 11 -8 23 -12 26 -10 3 3 -5 12 -17 21 -19 13
-20 17 -8 30 19 18 30 18 23 0 -4 -10 -1 -13 9 -9 7 3 14 9 14 14 0 4 10 17
21 28 16 15 20 27 15 45 -7 29 -26 35 -27 9 0 -15 -2 -15 -8 2 -7 16 -10 11
-16 -25 -6 -34 -9 -40 -15 -25 -6 17 -7 16 -14 -8 -3 -15 -11 -27 -16 -27 -14
0 -14 1 20 102 39 115 40 179 5 207 -30 23 -129 47 -235 56 -41 4 -78 9 -81
11 -3 2 -9 1 -13 -3z"/>
</g>
</svg>
